HIERARCHY
ROOT root
{
	OFFSET 0.000000 0.000000 0.000000
	CHANNELS 6 Xposition Yposition Zposition Zrotation Yrotation Xrotation
	JOINT lhip
	{
		OFFSET 0.058581 -0.082280 -0.017664
		CHANNELS 3 Zrotation Yrotation Xrotation
		JOINT lknee
		{
			OFFSET 0.043451 -0.386469 0.008037
			CHANNELS 3 Zrotation Yrotation Xrotation
			JOINT lankle
			{
				OFFSET -0.014790 -0.426874 -0.037428
				CHANNELS 3 Zrotation Yrotation Xrotation
				JOINT ltoe
				{
					OFFSET 0.041054 -0.060286 0.122042
					CHANNELS 3 Zrotation Yrotation Xrotation
					End Site
					{
						OFFSET 0.000000 0.000000 0.000000
					}
				}
			}
		}
	}
	JOINT rhip
	{
		OFFSET -0.060310 -0.090513 -0.013543
		CHANNELS 3 Zrotation Yrotation Xrotation
		JOINT rknee
		{
			OFFSET -0.043257 -0.383688 -0.004843
			CHANNELS 3 Zrotation Yrotation Xrotation
			JOINT rankle
			{
				OFFSET 0.019056 -0.420046 -0.034562
				CHANNELS 3 Zrotation Yrotation Xrotation
				JOINT rtoe
				{
					OFFSET -0.034840 -0.062106 0.130323
					CHANNELS 3 Zrotation Yrotation Xrotation
					End Site
					{
						OFFSET 0.000000 0.000000 0.000000
					}
				}
			}
		}
	}
	JOINT lowerback
	{
		OFFSET 0.004439 0.124404 -0.038385
		CHANNELS 3 Zrotation Yrotation Xrotation
		JOINT upperback
		{
			OFFSET 0.004488 0.137956 0.026820
			CHANNELS 3 Zrotation Yrotation Xrotation
			JOINT chest
			{
				OFFSET -0.002265 0.056032 0.002855
				CHANNELS 3 Zrotation Yrotation Xrotation
				JOINT lowerneck
				{
					OFFSET -0.013390 0.211636 -0.033468
					CHANNELS 3 Zrotation Yrotation Xrotation
					JOINT upperneck
					{
						OFFSET 0.010113 0.088937 0.050410
						CHANNELS 3 Zrotation Yrotation Xrotation
						End Site
						{
							OFFSET 0.000000 0.000000 0.000000
						}
					}
				}
				JOINT lclavicle
				{
					OFFSET 0.071702 0.114000 -0.018898
					CHANNELS 3 Zrotation Yrotation Xrotation
					JOINT lshoulder
					{
						OFFSET 0.122921 0.045205 -0.019046
						CHANNELS 3 Zrotation Yrotation Xrotation
						JOINT lelbow
						{
							OFFSET 0.255332 -0.015649 -0.022946
							CHANNELS 3 Zrotation Yrotation Xrotation
							JOINT lwrist
							{
								OFFSET 0.265709 0.012698 -0.007375
								CHANNELS 3 Zrotation Yrotation Xrotation
								End Site
								{
									OFFSET 0.000000 0.000000 0.000000
								}
							}
						}
					}
				}
				JOINT rclavicle
				{
					OFFSET -0.082954 0.112472 -0.023707
					CHANNELS 3 Zrotation Yrotation Xrotation
					JOINT rshoulder
					{
						OFFSET -0.113228 0.046853 -0.008472
						CHANNELS 3 Zrotation Yrotation Xrotation
						JOINT relbow
						{
							OFFSET -0.260127 -0.014369 -0.031269
							CHANNELS 3 Zrotation Yrotation Xrotation
							JOINT rwrist
							{
								OFFSET -0.269108 0.006794 -0.006027
								CHANNELS 3 Zrotation Yrotation Xrotation
								End Site
								{
									OFFSET 0.000000 0.000000 0.000000
								}
							}
						}
					}
				}
			}
		}
	}
}
MOTION
Frames: 14
Frame Time: 0.033333
1.052110 1.037729 0.983215 -86.489047 1.348170 85.095805 6.810395 -1.174416 -5.180536 -4.530523 -14.414388 9.700968 1.301070 5.106823 -10.612545 0.000000 -0.000000 0.000000 -5.496476 -2.693104 12.932268 2.002561 5.510352 9.499696 3.657617 -5.546884 -17.804708 0.000000 -0.000000 0.000000 -4.183209 4.568168 7.116269 1.530917 -2.286980 6.724112 -0.095906 -1.609362 8.309087 5.788161 3.891953 14.923395 2.934297 -1.090456 14.811439 -23.705780 10.120769 3.563848 -56.013508 -4.706116 5.402360 8.767406 -27.876003 4.893820 -2.480645 0.374309 -10.750968 24.701947 -6.935903 -0.303674 56.347901 4.240254 11.138212 -15.822754 34.862957 -6.325092 5.305549 0.150562 -9.455974 
1.044321 1.023755 0.983089 -87.071417 1.490762 85.476552 6.056206 -1.190014 -5.224740 -4.692578 -14.076595 10.213502 2.288373 5.512096 -11.552559 0.000000 -0.000000 0.000000 -5.773039 -2.101229 11.551812 1.480922 5.772401 12.063750 4.070690 -5.584910 -17.814334 0.000000 -0.000000 0.000000 -4.331236 4.676560 7.165778 1.535065 -1.991194 6.650642 -0.261549 -1.602300 8.358449 5.794786 3.358781 15.211180 3.101085 -1.337555 14.844994 -23.132315 9.630421 3.876520 -55.798112 -5.442893 5.475421 9.109938 -29.778979 4.636509 -2.183307 0.416355 -11.130555 24.269011 -6.806722 0.144143 56.951628 3.960726 11.149980 -16.198414 35.183800 -6.697210 5.628990 0.319191 -9.929150 
1.039849 1.010931 0.984286 -88.111775 2.084236 85.646538 6.003308 -1.382940 -4.912933 -4.965442 -13.470278 10.144259 2.691225 6.201838 -11.828684 0.000000 -0.000000 0.000000 -5.454943 -1.435880 9.633968 0.990016 6.025428 15.315153 4.244831 -6.031388 -17.133175 0.000000 -0.000000 0.000000 -3.852041 4.986650 8.185765 1.562721 -1.558939 6.231038 -0.371820 -1.485780 8.425877 5.813819 2.752859 14.711566 3.420989 -2.027769 14.622100 -23.047582 9.293616 3.573074 -55.312294 -6.299077 5.794500 9.612168 -32.245445 3.783273 -1.753708 0.225716 -11.447228 24.194046 -6.616296 -0.110786 56.830577 3.484223 11.334485 -15.978865 35.296167 -7.160269 5.755432 0.312809 -10.018393 
1.032489 0.998708 0.985997 -88.603594 2.544601 85.494405 5.755535 -1.144974 -3.799310 -5.100351 -13.606169 9.496840 3.188803 6.581365 -12.024210 0.000000 -0.000000 0.000000 -5.458819 -1.590505 8.578122 0.599134 5.912551 18.270444 4.426383 -6.107300 -16.053579 0.000000 -0.000000 0.000000 -3.899615 4.742592 8.584283 1.795576 -1.357562 6.377895 -0.202315 -1.441083 8.507295 5.707982 2.503737 14.829197 3.282076 -2.034905 14.704526 -23.116371 9.527438 3.401651 -55.134239 -6.996150 5.869811 10.395446 -35.192911 3.148781 -1.249938 -0.055376 -12.036685 24.345011 -6.477365 -0.080201 56.347782 3.329148 11.534768 -15.642703 34.693625 -6.762086 6.120432 0.099758 -9.021324 
1.027135 0.987364 0.987878 -88.846962 2.937340 85.564158 5.458398 -1.041380 -3.007955 -5.133135 -13.528156 8.709671 3.684431 6.567526 -11.995246 0.000000 -0.000000 0.000000 -5.529742 -1.669648 7.203212 0.386149 5.241076 21.026232 4.153094 -6.541038 -13.982772 0.000000 -0.000000 0.000000 -3.948110 4.242197 8.522115 1.975982 -1.456461 7.038068 -0.086837 -1.330079 8.649131 5.694058 2.188134 14.853134 3.196448 -2.050844 14.935127 -22.930104 9.702169 3.422987 -55.382777 -7.977435 5.998155 11.453176 -37.939422 2.148539 -0.934404 -0.083452 -12.961499 24.458398 -6.237596 -0.073560 56.353518 3.465595 11.629914 -16.103405 33.743938 -7.046062 6.164200 -0.121919 -8.152046 
1.021637 0.976480 0.989412 -89.057302 3.337230 85.664206 5.173036 -0.828224 -2.100317 -5.063438 -13.773709 7.562724 4.080259 6.769573 -11.775290 0.000000 -0.000000 0.000000 -5.241765 -1.448979 5.373239 -0.193541 4.524142 24.516713 4.187174 -7.025017 -12.392270 0.000000 -0.000000 0.000000 -4.063738 3.738167 8.880104 2.309400 -1.289688 6.957525 0.148633 -1.504622 8.607003 5.618858 1.883516 14.806152 3.085314 -1.980147 15.127604 -22.655934 9.950130 3.441839 -55.753812 -8.637290 6.200317 12.166677 -40.067365 1.460863 -0.327370 -0.336613 -13.769910 24.289387 -6.541637 -0.178309 56.352002 2.979883 11.692378 -16.105776 33.026305 -7.350314 6.181481 -0.113013 -7.903564 
1.017541 0.966660 0.990496 -89.135257 3.482651 85.877954 4.772966 -0.815774 -1.431078 -5.090600 -13.821225 6.446597 4.401429 6.867659 -11.539233 0.000000 -0.000000 0.000000 -5.055249 -0.908299 3.391072 -0.747162 3.557581 28.051075 3.724138 -8.215740 -10.505972 0.000000 -0.000000 0.000000 -4.251099 3.295612 8.960233 2.519405 -1.244353 7.006699 0.264670 -1.781871 8.770784 5.529249 1.597376 14.762142 3.120292 -1.804500 15.191489 -22.479246 9.880545 3.702119 -55.710026 -9.406242 6.401983 12.584156 -42.034584 0.946199 -0.321798 -0.524954 -14.540177 24.423629 -6.821257 -0.168437 56.332916 2.572989 11.777287 -16.462622 32.642942 -7.982383 6.393411 -0.172925 -7.811879 
1.012567 0.957411 0.991420 -88.551670 3.720790 85.839071 4.343654 -0.742429 -0.558776 -4.918676 -14.457882 5.480820 4.661429 6.762162 -11.235331 0.000000 -0.000000 0.000000 -4.579284 -0.931317 1.982790 -1.387150 2.521335 31.162443 3.538041 -9.405332 -9.295502 0.000000 -0.000000 0.000000 -4.285705 2.575466 9.442106 2.672070 -1.461144 6.922784 0.382238 -2.064284 9.002492 5.522171 1.488348 14.440216 3.154401 -1.706633 15.011793 -22.258936 9.784717 3.672697 -55.639076 -10.058863 6.565867 12.568476 -43.451458 1.166524 -0.491330 -0.341582 -14.621671 24.341357 -7.142284 -0.271937 56.554111 2.034682 11.761989 -16.572121 32.198814 -8.346080 6.728413 -0.159888 -7.826925 
1.008969 0.949602 0.992161 -88.294219 3.816894 85.696808 3.918217 -0.454309 0.374694 -4.853132 -15.046656 4.503434 4.927652 6.814079 -11.116223 0.000000 -0.000000 0.000000 -3.959937 -0.567614 0.319861 -1.795556 1.493755 34.299209 3.539829 -10.351124 -10.416003 0.000000 -0.000000 0.000000 -4.419378 1.918819 10.098968 2.775966 -1.570913 6.791198 0.373942 -2.372430 9.087761 5.733431 1.417534 14.352121 3.202822 -2.006498 14.932275 -22.036399 9.618460 3.758034 -55.500714 -10.549187 6.626965 12.758433 -44.295037 1.043963 -0.561101 -0.487149 -14.699083 24.242712 -7.245321 -0.539712 56.890450 1.361823 11.791317 -16.434603 31.704337 -8.100372 7.050293 -0.112894 -7.820889 
1.005714 0.942530 0.993068 -88.085624 3.962334 85.568775 3.619550 -0.173550 1.270073 -4.750741 -15.606405 3.612136 4.910370 6.837188 -10.885033 0.000000 -0.000000 0.000000 -3.120199 -0.345514 -1.261406 -1.687422 0.703784 36.432270 3.811163 -10.512230 -12.223516 0.000000 -0.000000 0.000000 -4.452973 1.291768 10.821822 2.804747 -1.658536 6.600321 0.388678 -2.541141 9.027084 5.796529 1.377376 14.446423 3.197695 -2.301542 14.910659 -21.891627 9.319238 3.775624 -55.579685 -10.820654 6.702822 13.054714 -44.548076 0.814628 -0.355504 -0.352815 -14.334389 24.205790 -7.346668 -0.564653 57.171201 0.750742 11.588022 -16.282793 31.058189 -7.700219 7.367242 -0.149567 -7.650453 
1.002936 0.936506 0.994117 -88.109717 4.161959 85.325027 3.440446 0.001237 2.210991 -4.591734 -16.041440 2.866801 4.846460 7.044357 -10.838844 0.000000 -0.000000 0.000000 -1.992465 0.108973 -2.545618 -1.324150 -0.101792 37.405314 3.991831 -10.548028 -13.808711 0.000000 -0.000000 0.000000 -4.421983 0.856087 10.966661 2.888903 -1.791536 7.255568 0.343952 -2.649153 9.076232 6.019823 1.370072 14.085787 3.292129 -2.833805 14.955031 -21.825603 8.860379 3.630097 -55.902333 -11.306257 6.700721 13.572888 -44.059749 -0.023609 -0.452755 -0.185653 -14.129506 23.962829 -7.227853 -0.518625 57.660747 0.345139 11.530545 -16.272669 30.678214 -7.246536 7.743628 -0.078718 -7.655645 
1.000466 0.931250 0.995637 -88.117172 4.382606 85.259788 3.233225 -0.017344 2.942421 -4.232030 -16.294006 2.161169 4.386032 7.145949 -10.646630 0.000000 -0.000000 0.000000 -0.577298 0.552631 -3.699134 -0.961062 -0.787321 36.994088 3.973770 -10.547744 -14.410761 0.000000 -0.000000 0.000000 -4.405094 0.366164 11.455073 2.866422 -1.871752 7.063783 0.410080 -2.769038 9.123540 6.091774 1.335206 14.164279 3.388072 -2.882705 14.911961 -21.992654 8.801989 3.486873 -56.193728 -11.513246 6.697225 13.783412 -43.344695 -0.691362 -0.443451 -0.016597 -13.956863 23.761028 -7.440961 -0.561713 57.975268 -0.233771 11.569350 -16.134457 30.471719 -6.788924 7.896771 -0.104541 -7.666066 
0.997823 0.926608 0.996640 -88.224115 4.578272 85.240443 3.035184 -0.175232 3.411106 -4.029166 -16.404565 1.878071 4.335812 7.497361 -10.760220 0.000000 -0.000000 0.000000 1.023067 1.078819 -4.861021 -0.548504 -1.304638 35.887191 4.048353 -10.054354 -15.070063 0.000000 -0.000000 0.000000 -4.338188 -0.117365 11.748031 2.786264 -1.908474 6.817967 0.346309 -3.011354 9.162879 6.125510 1.820973 14.409782 3.473519 -2.609920 15.024234 -22.092593 8.869477 3.581645 -56.464210 -11.316104 6.779762 13.994673 -42.748653 -0.946402 -0.479001 0.029312 -13.595035 23.528713 -7.666198 -0.322173 58.418882 -0.497287 11.520495 -16.114982 30.076937 -6.302758 8.009019 0.109247 -7.829247 
0.994925 0.922081 0.997419 -88.288062 4.788382 85.152926 2.847586 -0.102935 3.960432 -3.707769 -16.621268 1.567808 4.057871 7.670826 -11.047650 0.000000 -0.000000 0.000000 2.228126 1.138579 -5.094404 0.267207 -1.673581 32.937319 4.121149 -9.389619 -15.512815 0.000000 -0.000000 0.000000 -4.125099 -0.317462 11.801682 2.698476 -2.272565 6.918605 0.272179 -3.243974 9.254887 6.198461 1.647269 14.343418 3.674294 -2.889958 14.928607 -22.281355 8.826827 3.467989 -56.853924 -11.022103 6.899369 13.777097 -41.916690 -0.800722 -0.397764 -0.336655 -13.204999 23.219958 -8.017442 -0.417183 58.681132 -0.900432 11.454429 -15.836093 30.339973 -5.649185 7.902213 -0.097076 -8.327371 
